<svg xmlns="http://www.w3.org/2000/svg" xmlns:xlink="http://www.w3.org/1999/xlink" width="832.2727279820715" height="938.1818186547141" version="1.1" style=""><rect id="backgroundrect" width="100%" height="100%" x="0" y="0" fill="none" stroke="none" class="" style=""/>
    <!-- Generator: Sketch 51.2 (57519) - http://www.bohemiancoding.com/sketch -->
    <title>ECFLogo</title>
    <desc>Created with Sketch.</desc>
    <defs>
        <polygon id="path-1" points="0.3377228 928 823.337723 928 823.337723 0.4885 0.3377228 0.4885"/>
        <polygon id="path-3" points="0.3377228 928 823.337723 928 823.337723 0.4885 0.3377228 0.4885"/>
        <polygon id="path-5" points="0.3377228 928 823.337723 928 823.337723 0.4885 0.3377228 0.4885"/>
        <polygon id="path-7" points="0.3377228 928 823.337723 928 823.337723 0.4885 0.3377228 0.4885"/>
        <polygon id="path-9" points="0.3377228 928 823.337723 928 823.337723 0.4885 0.3377228 0.4885"/>
        <polygon id="path-11" points="0.3377228 928 823.337723 928 823.337723 0.4885 0.3377228 0.4885"/>
        <polygon id="path-13" points="0.3377228 928 823.337723 928 823.337723 0.4885 0.3377228 0.4885"/>
        <polygon id="path-15" points="0.3377228 928 823.337723 928 823.337723 0.4885 0.3377228 0.4885"/>
    </defs>
    
<g class="currentLayer" style=""><title>Layer 1</title>
        <g id="ecf" class="" fill-opacity="1" fill="#787878">
            <g id="Fill-1-Clipped" fill="#787878">
                <mask id="mask-2" fill="white" transform="translate(0,-12.727272033691406) translate(3.6363635063171387,-12.727272033691406) translate(12.727272033691406,-1.8181817531585693) translate(-14.545454025268555,0) translate(-20,3.6363635063171387) translate(10.909090995788574,0) translate(21.81818199157715,1.8181817531585693) translate(-114.54544830322266,-5.454545497894287) translate(18.18181800842285,1.8181817531585693) translate(85.45454406738281,27.27272605895996) ">
                    <use xlink:href="#path-1" id="svg_1" y="-1.8181817531585693" x="-3.6363682746887207"/>
                </mask>
                <g id="path-1" fill="#787878"/>
                <path d="M135.9005682746887,140.58578175315856 L79.06962827468874,173.66588175315857 C41.70527827468874,195.24568175315858 41.19324827468873,228.23218175315856 78.79841827468871,249.97588175315855 L415.47736827468873,445.91488175315857 L538.9917682746888,373.8758817531586 L135.9005682746887,140.58578175315856 z" id="Fill-1" fill="#787878" fill-rule="nonzero" mask="url(#mask-2)"/>
            </g>
            <g id="Fill-3-Clipped" fill="#787878">
                <mask id="mask-4" fill="white" transform="translate(0,-12.727272033691406) translate(3.6363635063171387,-12.727272033691406) translate(12.727272033691406,-1.8181817531585693) translate(-14.545454025268555,0) translate(-20,3.6363635063171387) translate(10.909090995788574,0) translate(21.81818199157715,1.8181817531585693) translate(-114.54544830322266,-5.454545497894287) translate(18.18181800842285,1.8181817531585693) translate(85.45454406738281,27.27272605895996) ">
                    <use xlink:href="#path-3" id="svg_2"/>
                </mask>
                <g id="path-1" fill="#787878"/>
                <path d="M694.4588682746887,283.50508175315855 L817.7254682746888,211.92948175315857 L488.20096827468865,20.27088175315857 C445.1948682746887,-4.515218246841432 382.5211682746887,-2.7295182468414296 345.15686827468875,18.850381753158572 L291.2928682746887,50.27348175315856 L694.4588682746887,283.50508175315855 z" id="Fill-3" fill="#787878" fill-rule="nonzero" mask="url(#mask-4)"/>
            </g>
            <g id="Fill-4-Clipped" fill="#787878">
                <mask id="mask-6" fill="white" transform="translate(0,-12.727272033691406) translate(3.6363635063171387,-12.727272033691406) translate(12.727272033691406,-1.8181817531585693) translate(-14.545454025268555,0) translate(-20,3.6363635063171387) translate(10.909090995788574,0) translate(21.81818199157715,1.8181817531585693) translate(-114.54544830322266,-5.454545497894287) translate(18.18181800842285,1.8181817531585693) translate(85.45454406738281,27.27272605895996) ">
                    <use xlink:href="#path-5" id="svg_3"/>
                </mask>
                <g id="path-1" fill="#787878"/>
                <polygon id="Fill-4" fill="#787878" fill-rule="nonzero" mask="url(#mask-6)" points="555.2376708984375,364.52758026123047 678.1138305664062,293.0478744506836 274.94775390625,59.717979431152344 152.0576629638672,131.24446868896484 "/>
            </g>
            <g id="Fill-5-Clipped" fill="#787878">
                <mask id="mask-8" fill="white" transform="translate(0,-12.727272033691406) translate(3.6363635063171387,-12.727272033691406) translate(12.727272033691406,-1.8181817531585693) translate(-14.545454025268555,0) translate(-20,3.6363635063171387) translate(10.909090995788574,0) translate(21.81818199157715,1.8181817531585693) translate(-114.54544830322266,-5.454545497894287) translate(18.18181800842285,1.8181817531585693) translate(85.45454406738281,27.27272605895996) ">
                    <use xlink:href="#path-7" id="svg_4"/>
                </mask>
                <g id="path-1" fill="#787878"/>
                <path d="M406.1085682746887,686.8026817531586 L406.12496827468874,462.1131817531586 L69.14203827468873,266.0431817531586 C31.571948274688737,244.3298817531586 3.973623474688722,266.26548175315855 3.973623474688722,309.3901817531586 L3.980637574688714,452.7519817531586 L406.1085682746887,686.8026817531586 z" id="Fill-5" fill="#787878" fill-rule="nonzero" mask="url(#mask-8)"/>
            </g>
            <g id="Fill-6-Clipped" fill="#787878">
                <mask id="mask-10" fill="white" transform="translate(0,-12.727272033691406) translate(3.6363635063171387,-12.727272033691406) translate(12.727272033691406,-1.8181817531585693) translate(-14.545454025268555,0) translate(-20,3.6363635063171387) translate(10.909090995788574,0) translate(21.81818199157715,1.8181817531585693) translate(-114.54544830322266,-5.454545497894287) translate(18.18181800842285,1.8181817531585693) translate(85.45454406738281,27.27272605895996) ">
                    <use xlink:href="#path-9" id="svg_5"/>
                </mask>
                <g id="path-1" fill="#787878"/>
                <path d="M3.980169974688721,471.4750817531586 L4.078367974688717,616.6576817531586 C4.078367974688717,671.8956817531586 34.9335882746887,714.1848817531586 72.50602827468873,735.8957817531585 L406.1244682746887,930.1731627531585 L406.1244682746887,705.5140817531586 L3.980169974688721,471.4750817531586 z" id="Fill-6" fill="#787878" fill-rule="nonzero" mask="url(#mask-10)"/>
            </g>
            <g id="Fill-7-Clipped" fill="#787878">
                <mask id="mask-12" fill="white" transform="translate(0,-12.727272033691406) translate(3.6363635063171387,-12.727272033691406) translate(12.727272033691406,-1.8181817531585693) translate(-14.545454025268555,0) translate(-20,3.6363635063171387) translate(10.909090995788574,0) translate(21.81818199157715,1.8181817531585693) translate(-114.54544830322266,-5.454545497894287) translate(18.18181800842285,1.8181817531585693) translate(85.45454406738281,27.27272605895996) ">
                    <use xlink:href="#path-11" id="svg_6"/>
                </mask>
                <g id="path-1" fill="#787878"/>
                <path d="M826.9731682746888,373.18148175315855 L826.9731682746888,228.08308175315858 L499.65576827468874,418.5785817531586 C455.6934682746887,444.25398175315854 424.8288682746887,490.2875817531585 424.8288682746887,541.3528817531586 L424.8288682746887,607.2110817531586 L826.9731682746888,373.18148175315855 z" id="Fill-7" fill="#787878" fill-rule="nonzero" mask="url(#mask-12)"/>
            </g>
            <g id="Fill-8-Clipped" fill="#787878">
                <mask id="mask-14" fill="white" transform="translate(0,-12.727272033691406) translate(3.6363635063171387,-12.727272033691406) translate(12.727272033691406,-1.8181817531585693) translate(-14.545454025268555,0) translate(-20,3.6363635063171387) translate(10.909090995788574,0) translate(21.81818199157715,1.8181817531585693) translate(-114.54544830322266,-5.454545497894287) translate(18.18181800842285,1.8181817531585693) translate(85.45454406738281,27.27272605895996) ">
                    <use xlink:href="#path-13" id="svg_7"/>
                </mask>
                <g id="path-1" fill="#787878"/>
                <polygon id="Fill-8" fill="#787878" fill-rule="nonzero" mask="url(#mask-14)" points="687.9322509765625,613.2001571655273 687.9322509765625,473.0936813354492 424.829345703125,625.9336166381836 424.829345703125,766.3514633178711 "/>
            </g>
            <g id="Fill-9-Clipped" fill="#787878">
                <mask id="mask-16" fill="white" transform="translate(0,-12.727272033691406) translate(3.6363635063171387,-12.727272033691406) translate(12.727272033691406,-1.8181817531585693) translate(-14.545454025268555,0) translate(-20,3.6363635063171387) translate(10.909090995788574,0) translate(21.81818199157715,1.8181817531585693) translate(-114.54544830322266,-5.454545497894287) translate(18.18181800842285,1.8181817531585693) translate(85.45454406738281,27.27272605895996) ">
                    <use xlink:href="#path-15" id="svg_8"/>
                </mask>
                <g id="path-1" transform="" fill="#787878"/>
                <polygon id="Fill-9" fill="#787878" fill-rule="nonzero" mask="url(#mask-16)" points="424.828857421875,785.0747299194336 424.828857421875,930.1731185913086 548.5349731445312,858.1879501342773 548.5349731445312,713.3634262084961 "/>
            </g>
        </g>
        
    </g></svg>