<svg xmlns="http://www.w3.org/2000/svg" width="409.1199951171875" height="352.42999267578125" style=""><rect id="backgroundrect" width="100%" height="100%" x="0" y="0" fill="none" stroke="none"/><title>dappnode-logo-gelee</title><g class="currentLayer" style=""><title>Layer 1</title><ellipse cx="144.8699951171875" cy="185.92999267578125" rx="28.5" ry="29" style="" id="svg_1" fill="#ffffff" class="" transform="matrix(1,0,0,1,0,0) "/><circle cx="101.87000274658203" cy="134.42999267578125" r="14.5" style="" id="svg_2" fill="#ffffff" class=""/><line x1="100.37000274658203" y1="132.92999267578125" x2="144.3699951171875" y2="185.92999267578125" style="fill: none; stroke-miterlimit: 10; stroke-width: 6px;" id="svg_3" class="" stroke="#ffffff"/><circle cx="195.8699951171875" cy="143.42999267578125" r="14.5" style="" id="svg_4" fill="#ffffff" class=""/><line x1="197.3699951171875" y1="141.92999267578125" x2="144.3699951171875" y2="185.92999267578125" style="fill: none; stroke-miterlimit: 10; stroke-width: 6px;" id="svg_5" class="" stroke="#ffffff"/><circle cx="81.22000122070312" cy="209.6199951171875" r="14.5" style="" id="svg_6" fill="#ffffff" class=""/><line x1="79.30999755859375" y1="210.5500030517578" x2="143.75" y2="186.22000122070312" style="fill: none; stroke-miterlimit: 10; stroke-width: 6px;" id="svg_7" class="" stroke="#ffffff"/><circle cx="145.5500030517578" cy="252.4600067138672" r="14.5" style="" id="svg_8" fill="#ffffff" class=""/><line x1="145.77999877929688" y1="254.57000732421875" x2="144.61000061035156" y2="185.6999969482422" style="fill: none; stroke-miterlimit: 10; stroke-width: 6px;" id="svg_9" class="" stroke="#ffffff"/><circle cx="210.07000732421875" cy="210.52999877929688" r="14.5" style="" id="svg_10" fill="#ffffff" class=""/><line x1="212.1300048828125" y1="211.02000427246094" x2="146.88999938964844" y2="188.91000366210938" style="fill: none; stroke-miterlimit: 10; stroke-width: 6px;" id="svg_11" class="" stroke="#ffffff"/><ellipse cx="239.59999084472656" cy="325.3599853515625" rx="23.540000915527344" ry="23.959999084472656" transform="rotate(-81.81999969482422 63.0900001525879,244.27000427246094) " style="" id="svg_12" fill="#ffffff" class=""/><circle cx="101.87000274658203" cy="73.43000030517578" r="14.5" style="" id="svg_13" fill="#ffffff" class=""/><line x1="99.75" y1="73.4000015258789" x2="168.24000549316406" y2="80.7699966430664" style="fill: none; stroke-miterlimit: 10; stroke-width: 6px;" id="svg_14" class="" stroke="#ffffff"/><line x1="168.22000122070312" y1="81.02999877929688" x2="196.52000427246094" y2="143.83999633789062" style="fill: none; stroke-miterlimit: 10; stroke-width: 6px;" id="svg_15" class="" stroke="#ffffff"/><line x1="195.7100067138672" y1="142.83999633789062" x2="264.510009765625" y2="139.4199981689453" style="fill: none; stroke-miterlimit: 10; stroke-width: 6px;" id="svg_16" class="" stroke="#ffffff"/><circle cx="160.05999755859375" cy="14.5" r="14.5" style="" id="svg_17" fill="#ffffff" class=""/><line x1="159.57000732421875" y1="12.4399995803833" x2="169.17999267578125" y2="80.6500015258789" style="fill: none; stroke-miterlimit: 10; stroke-width: 6px;" id="svg_18" class="" stroke="#ffffff"/><ellipse cx="290.54998779296875" cy="463.25" rx="28.5" ry="29" transform="rotate(-62.75 15.249999999999927,321.5700073242187) " style="" id="svg_19" fill="#ffffff" class=""/><circle cx="252.80999755859375" cy="76.87999725341797" r="14.5" style="" id="svg_20" fill="#ffffff" class=""/><line x1="252.1699981689453" y1="74.86000061035156" x2="267.0199890136719" y2="142.1199951171875" style="fill: none; stroke-miterlimit: 10; stroke-width: 6px;" id="svg_21" class="" stroke="#ffffff"/><ellipse cx="203.98001098632812" cy="488.92999267578125" rx="14.5600004196167" ry="14.100000381469727" transform="rotate(-49.56999969482422 -69.80999755859378,281.3699951171875) " style="" id="svg_22" fill="#ffffff" class=""/><line x1="265.8800048828125" y1="209.64999389648438" x2="267.8299865722656" y2="141.39999389648438" style="fill: none; stroke-miterlimit: 10; stroke-width: 6px;" id="svg_23" class="" stroke="#ffffff"/><circle cx="327.3299865722656" cy="171.72000122070312" r="14.5" style="" id="svg_24" fill="#ffffff" class=""/><line x1="329.3299865722656" y1="172.44000244140625" x2="267.05999755859375" y2="142.97999572753906" style="fill: none; stroke-miterlimit: 10; stroke-width: 6px;" id="svg_25" class="" stroke="#ffffff"/><circle cx="319.8999938964844" cy="102.05000305175781" r="14.5" style="" id="svg_26" fill="#ffffff" class=""/><line x1="321.4700012207031" y1="100.62000274658203" x2="266.489990234375" y2="142.1199951171875" style="fill: none; stroke-miterlimit: 10; stroke-width: 6px;" id="svg_27" class="" stroke="#ffffff"/><circle cx="228.10000610351562" cy="47.52000045776367" r="14.5" style="" id="svg_28" fill="#ffffff" class=""/><line x1="229.83999633789062" y1="46.29999923706055" x2="170.00999450683594" y2="80.44000244140625" style="fill: none; stroke-miterlimit: 10; stroke-width: 6px;" id="svg_29" class="" stroke="#ffffff"/><g id="Layer_2-2" data-name="Layer 2" fill="#ffffff" class=""><path d="M-1.9073486257070726e-7,333.93 v-64.4 H16.189999809265135 a33.1,33.1 0 0 1 11.32,1.84 A25.44,25.44 0 0 1 35.94999980926514,276.25 a26.56,26.56 0 0 1 5.61,7.22 a34.22,34.22 0 0 1 3.27,8.74 a44.09,44.09 0 0 1 1,9.52 a44.31,44.31 0 0 1 -0.92,9 a34.4,34.4 0 0 1 -3.13,8.69 a27.46,27.46 0 0 1 -5.57,7.46 a24.91,24.91 0 0 1 -8.6,5.1 a33.79,33.79 0 0 1 -11.77,1.9300000000000002 zm11,-10.3 h6 a16.88,16.88 0 0 0 8.23,-1.9300000000000002 a14,14 0 0 0 5.48,-5.2 a25.71,25.71 0 0 0 2.85,-7 a32.56,32.56 0 0 0 0.92,-7.78 a27.94,27.94 0 0 0 -4.14,-15.45 q-4.14,-6.43 -12.33,-6.44 H10.949999809265137 z" style="" id="svg_30" fill="#ffffff"/><path d="M90.15999980926513,333.93 L85.94999980926514,319.77 H65.50999980926514 l-4.24,14.16 H49.499999809265134 l21.07,-64.4 h10.3 L101.94999980926514,333.93 zM68.44999980926514,309.83 H82.94999980926514 l-5.71,-19.14 a49.76,49.76 0 0 1 -1.56,-7.17 q-1.11,5.61 -1.57,7.17 z" style="" id="svg_31" fill="#ffffff"/><path d="M109.84999980926514,352.43 V286.92 h10.58 v3.59 a14.88,14.88 0 0 1 11.5,-4.69 q9.48,0 15,6.53 t5.57,18.12 q0,11.32 -5.75,17.95 A18.7,18.7 0 0 1 132.01999980926513,335 q-7.37,0 -11.59,-4.88 v17.39 zm20.61,-27.51 a10.18,10.18 0 0 0 8.42,-3.73 q3,-3.72 3,-10.72 q0,-6.71 -3,-10.67 a10.06,10.06 0 0 0 -8.51,-3.95 q-6.63,0 -9.94,4.69 v19.69 Q123.74999980926515,324.91 130.45999980926513,324.92 z" style="" id="svg_32" fill="#ffffff"/><path d="M164.21999980926515,352.43 V286.92 h10.58 v3.59 a14.88,14.88 0 0 1 11.5,-4.69 q9.48,0 15,6.53 T206.94999980926514,310.47 q0,11.32 -5.75,17.95 A18.68,18.68 0 0 1 186.38999980926513,335 q-7.35,0 -11.59,-4.88 v17.39 zm20.61,-27.51 a10.18,10.18 0 0 0 8.42,-3.73 q3,-3.72 3,-10.72 q0,-6.71 -3,-10.67 a10.06,10.06 0 0 0 -8.51,-3.95 q-6.63,0 -9.94,4.69 v19.69 Q178.11999980926512,324.91 184.82999980926513,324.92 z" style="" id="svg_33" fill="#ffffff"/><path d="M220.24999980926515,333.93 v-64.4 h6.53 l23,47.84 c0.7400000000000001,1.6600000000000001 1.17,2.64 1.29,2.95 c-0.06000000000000001,-1.17 -0.09000000000000002,-2.18 -0.09000000000000002,-3 V269.53 h6.44 v64.4 h-6.54 L227.94999980926514,287 c-0.43000000000000005,-0.8500000000000001 -0.8900000000000001,-1.9 -1.3800000000000001,-3.12 q0.09000000000000002,1.47 0.09000000000000002,3 v47 z" style="" id="svg_34" fill="#ffffff"/><path d="M304.6599998092651,328.46 Q298.7199998092651,335 288.87999980926514,335 t-15.78,-6.49 q-5.92,-6.48 -5.93,-18.08 t5.93,-18.07 q5.94,-6.58 15.78,-6.58 t15.78,6.48 q5.94,6.49 5.93,18.08 T304.6599998092651,328.46 zm-15.78,0.78 q7.08,0 11,-5 t4,-13.85 q0,-8.92 -3.87,-13.84 t-11.13,-4.93 q-7.37,0 -11.18,4.83 t-3.8200000000000003,14 q0,8.92 3.87,13.85 T288.87999980926514,329.24 z" style="" id="svg_35" fill="#ffffff"/><path d="M337.54999980926516,335 q-9.3,0 -14.67,-6.67 t-5.39,-18 q0,-11.49 5.39,-18 t14.67,-6.53 a20.46,20.46 0 0 1 13.16,4.41 v-19.5 l6.43,-3.22 v66.42 h-6.43 v-4 A17.86,17.86 0 0 1 337.54999980926516,335 zm0.7400000000000001,-5.8 a13.27,13.27 0 0 0 12.42,-7.36 V298.42 a13.74,13.74 0 0 0 -12.42,-6.8100000000000005 q-6.8100000000000005,0 -10.45,4.88 t-3.63,13.89 q0,8.1 3.8600000000000003,13.48 A12,12 0 0 0 338.2899998092651,329.24 z" style="" id="svg_36" fill="#ffffff"/><path d="M409.12999980926514,308.54 c0,1.6600000000000001 -0.07,3.16 -0.19000000000000003,4.51 h-33.3 q0.92,7.54 4.69,11.78 a12.56,12.56 0 0 0 9.84,4.23 a19.22,19.22 0 0 0 11.23,-3.68 l3.49,4.32 A23.75,23.75 0 0 1 389.94999980926514,335 q-9.66,0 -15.37,-7.13 t-5.7,-17.53 q0,-11.6 5.7,-18.08 T389.94999980926514,285.82 a18.17,18.17 0 0 1 13.8,5.75 Q409.11999980926515,297.31 409.12999980926514,308.54 zm-33.68,-1.29 h27.14 q-0.09000000000000002,-8.55 -3.91,-12.09 a12.53,12.53 0 0 0 -8.78,-3.55 q-6.8100000000000005,0 -10.44,4.14 T375.44999980926514,307.25 z" style="" id="svg_37" fill="#ffffff"/></g></g></svg>